<?xml version="1.0" encoding="iso-8859-1"?>
<!-- Generator: Adobe Illustrator 18.1.1, SVG Export Plug-In . SVG Version: 6.00 Build 0)  -->
<svg version="1.1" id="Capa_1" xmlns="http://www.w3.org/2000/svg" xmlns:xlink="http://www.w3.org/1999/xlink" x="0px" y="0px"
	 viewBox="0 0 499.233 499.233" style="enable-background:new 0 0 499.233 499.233;" xml:space="preserve">
<g>
	<g>
		<path d="M359.833,151.017l-145.067,161.5l-76.5-73.383c-6.8-6.517-17.567-6.233-24.083,0.567
			c-6.517,6.8-6.233,17.567,0.567,24.083l88.967,85.567c3.117,3.117,7.367,4.817,11.9,4.817c0.283,0,0.283,0,0.567,0
			c4.533-0.283,9.067-2.267,11.9-5.667L385.05,173.967c6.233-7.083,5.667-17.85-1.417-24.083
			C376.833,143.367,366.067,143.933,359.833,151.017z"/>
		<path d="M249.617,0C111.917,0,0,111.917,0,249.617s111.917,249.617,249.617,249.617s249.617-111.917,249.617-249.617
			S387.317,0,249.617,0z M249.617,465.233c-119,0-215.617-96.617-215.617-215.617S130.617,34,249.617,34
			s215.617,96.617,215.617,215.617S368.617,465.233,249.617,465.233z"/>
	</g>
</g>
<g>
</g>
<g>
</g>
<g>
</g>
<g>
</g>
<g>
</g>
<g>
</g>
<g>
</g>
<g>
</g>
<g>
</g>
<g>
</g>
<g>
</g>
<g>
</g>
<g>
</g>
<g>
</g>
<g>
</g>
</svg>
