<?xml version="1.0" encoding="iso-8859-1"?>
<!-- Generator: Adobe Illustrator 18.1.1, SVG Export Plug-In . SVG Version: 6.00 Build 0)  -->
<svg version="1.1" id="Capa_1" xmlns="http://www.w3.org/2000/svg" xmlns:xlink="http://www.w3.org/1999/xlink" x="0px" y="0px"
	 viewBox="0 0 516.517 516.517" style="enable-background:new 0 0 516.517 516.517;" xml:space="preserve">
<g>
	<g>
		<path d="M42.925,17v364.65c0,5.95,3.117,11.617,8.217,14.45l196.633,117.867c2.833,1.7,5.667,2.55,8.783,2.55
			c3.117,0,6.233-0.85,9.067-2.55l200.033-125.233c5.1-3.117,7.933-8.5,7.933-14.45V17c0-9.35-7.65-17-17-17H59.925
			C50.575,0,42.925,7.65,42.925,17z M76.925,34h362.667v330.933l-183.317,114.75L76.925,372.017L76.925,34L76.925,34z"/>
		<path d="M242.392,133.45c0-35.133-28.617-63.75-63.75-63.75s-63.467,28.9-63.467,63.75s28.617,63.75,63.75,63.75
			S242.392,168.583,242.392,133.45z M149.175,133.45c0-16.433,13.317-29.75,29.75-29.75s29.467,13.6,29.467,29.75
			s-13.317,29.75-29.467,29.75S149.175,149.883,149.175,133.45z"/>
		<path d="M265.342,315.917c0,35.133,28.617,63.75,63.75,63.75c35.133,0,63.75-28.617,63.75-63.75s-28.9-63.467-63.75-63.467
			S265.342,281.067,265.342,315.917z M358.558,315.917c0,16.433-13.317,29.75-29.75,29.75s-29.75-13.317-29.75-29.75
			c0-16.433,13.6-29.467,30.033-29.467C345.525,286.45,358.558,299.767,358.558,315.917z"/>
		<path d="M356.858,86.983c-7.367-5.667-18.133-4.25-23.8,3.117L155.692,323.567c-5.667,7.367-4.25,18.133,3.117,23.8
			c3.117,2.267,6.8,3.4,10.2,3.4c5.1,0,10.2-2.267,13.6-6.8l177.65-233.183C365.925,103.417,364.508,92.65,356.858,86.983z"/>
	</g>
</g>
<g>
</g>
<g>
</g>
<g>
</g>
<g>
</g>
<g>
</g>
<g>
</g>
<g>
</g>
<g>
</g>
<g>
</g>
<g>
</g>
<g>
</g>
<g>
</g>
<g>
</g>
<g>
</g>
<g>
</g>
</svg>
