<?xml version="1.0" encoding="iso-8859-1"?>
<!-- Generator: Adobe Illustrator 18.1.1, SVG Export Plug-In . SVG Version: 6.00 Build 0)  -->
<svg version="1.1" id="Capa_1" xmlns="http://www.w3.org/2000/svg" xmlns:xlink="http://www.w3.org/1999/xlink" x="0px" y="0px"
	 viewBox="0 0 436.333 436.333" style="enable-background:new 0 0 436.333 436.333;" xml:space="preserve">
<g>
	<g>
		<path d="M408,70.267C408,31.45,376.55,0,337.733,0H98.6C59.783,0,28.333,31.45,28.333,70.267v295.8
			c0,38.817,31.45,70.267,70.267,70.267h239.133c38.817,0,70.267-31.45,70.267-70.267L408,70.267L408,70.267z M374,366.067
			c0,20.117-16.15,36.267-36.267,36.267H98.6c-20.117,0-36.267-16.15-36.267-36.267v-295.8C62.333,50.15,78.483,34,98.6,34h239.133
			C357.85,34,374,50.15,374,70.267L374,366.067L374,366.067z"/>
		<path d="M215.333,354.167c4.533,0,8.783-1.7,11.9-5.1c3.117-3.117,5.1-7.65,5.1-11.9s-1.7-8.783-5.1-11.9
			c-3.117-3.117-7.65-5.1-11.9-5.1s-8.783,1.7-11.9,5.1c-3.117,3.117-5.1,7.65-5.1,11.9s1.7,8.783,5.1,11.9
			C206.55,352.467,210.8,354.167,215.333,354.167z"/>
	</g>
</g>
<g>
</g>
<g>
</g>
<g>
</g>
<g>
</g>
<g>
</g>
<g>
</g>
<g>
</g>
<g>
</g>
<g>
</g>
<g>
</g>
<g>
</g>
<g>
</g>
<g>
</g>
<g>
</g>
<g>
</g>
</svg>
