<?xml version="1.0" encoding="UTF-8"?><!DOCTYPE svg PUBLIC "-//W3C//DTD SVG 1.1//EN" "http://www.w3.org/Graphics/SVG/1.1/DTD/svg11.dtd"><svg xmlns="http://www.w3.org/2000/svg"><symbol id="icon-cart" viewBox="0 0 459.529 459.529">
    <path d="M17 55.231h48.733l69.417 251.033c1.983 7.367 8.783 12.467 16.433 12.467h213.35c6.8 0 12.75-3.967 15.583-10.2l77.633-178.5c2.267-5.383 1.7-11.333-1.417-16.15-3.117-4.817-8.5-7.65-14.167-7.65H206.833c-9.35 0-17 7.65-17 17s7.65 17 17 17H416.5l-62.9 144.5H164.333L94.917 33.698c-1.983-7.367-8.783-12.467-16.433-12.467H17c-9.35 0-17 7.65-17 17s7.65 17 17 17z"/>
    <path d="M135.433 438.298c21.25 0 38.533-17.283 38.533-38.533s-17.283-38.533-38.533-38.533S96.9 378.514 96.9 399.764s17.283 38.534 38.533 38.534z"/>
    <path d="M376.267 438.298h2.833c10.2-.85 19.55-5.383 26.35-13.317 6.8-7.65 9.917-17.567 9.35-28.05-1.417-20.967-19.833-37.117-41.083-35.7-21.25 1.417-37.117 20.117-35.7 41.083 1.416 20.117 18.133 35.984 38.25 35.984z"/>
</symbol><symbol id="icon-check-mark" viewBox="0 0 45.701 45.7">
    <path d="M20.687 38.332a5.308 5.308 0 0 1-7.505 0L1.554 26.704A5.306 5.306 0 1 1 9.059 19.2l6.928 6.927a1.344 1.344 0 0 0 1.896 0L36.642 7.368a5.308 5.308 0 0 1 7.505 7.504l-23.46 23.46z"/>
</symbol><symbol id="icon-checked" viewBox="0 0 426.667 426.667">
    <path d="M213.333 0C95.518 0 0 95.514 0 213.333s95.518 213.333 213.333 213.333c117.828 0 213.333-95.514 213.333-213.333S331.157 0 213.333 0zm-39.134 322.918l-93.935-93.931 31.309-31.309 62.626 62.622 140.894-140.898 31.309 31.309-172.203 172.207z"/>
</symbol><symbol id="icon-close" viewBox="0 0 612 612">
    <path d="M612 36.004L576.521.603 306 270.608 35.478.603 0 36.004l270.522 270.007L0 575.997l35.478 35.4L306 341.411l270.521 269.986 35.479-35.4-270.541-269.986z"/>
</symbol><symbol id="icon-delivery-truck" viewBox="0 0 478.833 478.833">
    <path d="M17 367.058h42.217v2.267c0 42.217 34.283 76.783 76.783 76.783 42.217 0 76.783-34.283 76.783-76.5 0-3.683-.283-8.217-.85-11.05H292.4c-.283 2.833-.567 5.95-.85 9.067-.567 20.4 6.8 39.95 20.967 54.683 14.167 14.733 33.15 23.233 53.55 23.8h1.983c41.933 0 75.65-32.583 76.783-74.517 0-4.533-.283-10.2-.85-13.033H460.7c9.35 0 18.133-7.933 18.133-17.283V50.292c0-9.35-8.783-17.567-18.133-17.567H158.667c-9.35 0-17 7.933-17 17.567v26.917L62.05 75.225c-7.083-.283-13.317 3.967-16.15 10.483L1.417 192.525C.567 194.508 0 196.775 0 199.042v151.017c0 9.349 7.65 16.999 17 16.999zm17-34v-96.333h104.833c.85 0 1.983 0 2.833-.283v56.383c-1.983-.283-3.967-.283-5.95-.283-29.183 0-54.683 16.433-67.433 40.233H34v.283zm101.717 79.05c-23.517 0-42.783-19.267-42.783-42.783 0-23.517 19.267-42.783 42.783-42.783s42.783 19.267 42.783 42.783c0 23.517-19.267 42.783-42.783 42.783zm231.2 0c-11.333-.283-22.1-5.1-29.75-13.317s-11.9-19.267-11.617-30.6c.567-23.233 19.267-41.65 42.783-41.65h1.133c11.333.283 22.1 5.1 29.75 13.317 7.933 8.217 11.9 19.267 11.617 30.6-.566 23.8-20.116 42.5-43.916 41.65zm77.916-345.383v257.833H433.5c-1.133 0-1.983 0-3.117.283a92.108 92.108 0 0 0-6.517-8.217c-14.167-14.733-33.15-23.517-53.55-23.8h-1.983c-25.783 0-48.45 11.9-62.333 31.733H197.767c-5.95-8.5-13.6-15.3-22.1-20.683V66.725h269.166zM72.817 109.508l68.85 1.417v92.083c-.85-.283-1.983-.283-2.833-.283H34v-.283l38.817-92.934z"/>
</symbol><symbol id="icon-mark-circle" viewBox="0 0 499.233 499.233">
    <path d="M359.833 151.017l-145.067 161.5-76.5-73.383c-6.8-6.517-17.567-6.233-24.083.567-6.517 6.8-6.233 17.567.567 24.083l88.967 85.567c3.117 3.117 7.367 4.817 11.9 4.817h.567c4.533-.283 9.067-2.267 11.9-5.667L385.05 173.967c6.233-7.083 5.667-17.85-1.417-24.083-6.8-6.517-17.566-5.951-23.8 1.133z"/>
    <path d="M249.617 0C111.917 0 0 111.917 0 249.617s111.917 249.617 249.617 249.617 249.617-111.917 249.617-249.617S387.317 0 249.617 0zm0 465.233c-119 0-215.617-96.617-215.617-215.617S130.617 34 249.617 34s215.617 96.617 215.617 215.617-96.617 215.616-215.617 215.616z"/>
</symbol><symbol id="icon-quality" viewBox="0 0 512 512">
    <path d="M256 0C161.755 0 85.083 76.672 85.083 170.917c0 94.24 76.672 170.917 170.917 170.917 94.24 0 170.917-76.677 170.917-170.917C426.917 76.672 350.24 0 256 0zm0 308.211c-75.702 0-137.294-61.592-137.294-137.294S180.298 33.623 256 33.623c75.708 0 137.294 61.592 137.294 137.294S331.708 308.211 256 308.211z"/>
    <path d="M375.339 488.509l-8.406-199.497-33.589 1.412 7.33 173.887-69.448-59.838c-8.68-8.109-21.776-8.12-30.462 0l-69.443 59.832 7.33-173.881-33.595-1.412-8.406 199.497c-.006.235-.011.471-.011.706 0 8.904 5.172 17.036 13.18 20.712 8.047 3.71 17.293 2.382 24.13-3.497L256 435.737l82.074 70.72c4.259 3.648 9.465 5.537 14.732 5.537 3.172 0 6.36-.678 9.375-2.068 8.002-3.676 13.175-11.807 13.175-20.712 0-.235-.005-.47-.017-.705z"/>
    <path d="M330.654 119.799c-6.568-6.568-17.204-6.568-23.771 0l-73.22 73.22-34.066-34.48c-6.528-6.607-17.17-6.674-23.777-.146-6.607 6.528-6.674 17.17-.146 23.777l45.951 46.512a16.792 16.792 0 0 0 11.908 4.999h.05c4.455 0 8.736-1.771 11.891-4.931l85.178-85.178c6.57-6.564 6.57-17.211.002-23.773z"/>
</symbol><symbol id="icon-sales-ticket" viewBox="0 0 516.517 516.517">
    <path d="M42.925 17v364.65c0 5.95 3.117 11.617 8.217 14.45l196.633 117.867c2.833 1.7 5.667 2.55 8.783 2.55 3.117 0 6.233-.85 9.067-2.55l200.033-125.233c5.1-3.117 7.933-8.5 7.933-14.45V17c0-9.35-7.65-17-17-17H59.925c-9.35 0-17 7.65-17 17zm34 17h362.667v330.933l-183.317 114.75-179.35-107.666V34z"/>
    <path d="M242.392 133.45c0-35.133-28.617-63.75-63.75-63.75s-63.467 28.9-63.467 63.75 28.617 63.75 63.75 63.75 63.467-28.617 63.467-63.75zm-93.217 0c0-16.433 13.317-29.75 29.75-29.75s29.467 13.6 29.467 29.75-13.317 29.75-29.467 29.75-29.75-13.317-29.75-29.75z"/>
    <path d="M265.342 315.917c0 35.133 28.617 63.75 63.75 63.75 35.133 0 63.75-28.617 63.75-63.75s-28.9-63.467-63.75-63.467-63.75 28.617-63.75 63.467zm93.216 0c0 16.433-13.317 29.75-29.75 29.75s-29.75-13.317-29.75-29.75 13.6-29.467 30.033-29.467c16.434 0 29.467 13.317 29.467 29.467z"/>
    <path d="M356.858 86.983c-7.367-5.667-18.133-4.25-23.8 3.117L155.692 323.567c-5.667 7.367-4.25 18.133 3.117 23.8 3.117 2.267 6.8 3.4 10.2 3.4 5.1 0 10.2-2.267 13.6-6.8l177.65-233.183c5.666-7.367 4.249-18.134-3.401-23.801z"/>
</symbol><symbol id="icon-search" viewBox="0 0 483.083 483.083">
    <path d="M332.74 315.35c30.883-33.433 50.15-78.2 50.15-127.5C382.89 84.433 298.74 0 195.04 0S7.19 84.433 7.19 187.85 91.34 375.7 195.04 375.7c42.217 0 81.033-13.883 112.483-37.4l139.683 139.683c3.4 3.4 7.65 5.1 11.9 5.1s8.783-1.7 11.9-5.1c6.517-6.517 6.517-17.283 0-24.083L332.74 315.35zM41.19 187.85C41.19 103.133 110.04 34 195.04 34c84.717 0 153.85 68.85 153.85 153.85S280.04 341.7 195.04 341.7 41.19 272.567 41.19 187.85z"/>
</symbol><symbol id="icon-tablet-backside" viewBox="0 0 436.333 436.333">
    <path d="M408 70.267C408 31.45 376.55 0 337.733 0H98.6C59.783 0 28.333 31.45 28.333 70.267v295.8c0 38.817 31.45 70.267 70.267 70.267h239.133c38.817 0 70.267-31.45 70.267-70.267v-295.8zm-34 295.8a36.156 36.156 0 0 1-36.267 36.267H98.6a36.156 36.156 0 0 1-36.267-36.267v-295.8A36.156 36.156 0 0 1 98.6 34h239.133A36.156 36.156 0 0 1 374 70.267v295.8z"/>
    <path d="M215.333 354.167c4.533 0 8.783-1.7 11.9-5.1 3.117-3.117 5.1-7.65 5.1-11.9s-1.7-8.783-5.1-11.9c-3.117-3.117-7.65-5.1-11.9-5.1s-8.783 1.7-11.9 5.1c-3.117 3.117-5.1 7.65-5.1 11.9s1.7 8.783 5.1 11.9c3.117 3.4 7.367 5.1 11.9 5.1z"/>
</symbol><symbol id="icon-thumb-up" viewBox="0 0 441.919 441.919">
    <path d="M23.152 184.976c-32.017 45.9-23.8 92.65-16.433 133.733.567 2.833 1.133 5.667 1.417 8.5 6.8 39.1 16.15 92.367 61.483 100.3 17.567 3.117 56.95 8.217 93.783 8.217 28.9 0 49.867-3.117 63.467-9.633 16.433-7.65 26.917-15.867 35.417-22.383 8.217-6.233 12.183-9.067 17-9.633 1.983-.283 4.25-.283 7.083-.283 11.05 0 24.65 1.417 33.433 2.55-1.7 2.55-2.55 5.667-2.55 9.067 0 9.35 7.65 16.717 17 16.717l90.667-.283c9.35 0 17-7.367 17-16.717v-204c0-9.35-7.65-17-17-17h-87.833c-3.683 0-6.8 1.133-9.633 2.833-19.833-6.233-55.533-20.967-67.433-40.233-19.55-31.733-56.95-128.633-57.233-129.483-2.267-5.95-7.65-9.917-13.883-10.767-.567 0-3.683-.283-8.217-.283-51.567 0-69.983 33.717-69.983 65.167s6.233 60.633 12.183 80.75c-5.95-.567-12.467-.85-19.267-.85-36.834-.286-64.884 11.614-80.468 33.714zm385.05 203.15l-61.2.283c1.133-2.267 1.7-4.817 1.7-7.367V218.126h59.5v170zm-357-183.6c11.333-16.15 34.85-19.55 52.983-19.55 21.533 0 40.233 4.817 40.517 4.817 6.233 1.7 13.033-.283 17.283-5.383 4.25-4.817 5.383-11.9 2.833-17.85-.283-.567-19.267-45.05-19.267-95.483 0-16.717 7.083-22.667 12.183-25.783 5.95-3.4 12.75-4.817 18.133-5.1 10.767 26.917 38.533 96.05 55.817 124.1 18.133 29.75 61.2 47.033 83.3 54.117v143.083c-12.467-1.417-28.617-2.267-38.817-1.417-14.733 1.417-24.367 8.783-34.283 16.717-7.367 5.667-15.867 12.183-28.9 18.417-5.1 2.267-18.133 6.517-49.017 6.517-34.567 0-71.4-4.817-87.833-7.65-18.417-3.117-26.067-28.05-33.717-72.533-.567-2.833-1.133-5.667-1.417-8.5-7.364-38.252-13.881-74.235 10.202-108.519z"/>
</symbol></svg>